<?xml version="1.0" encoding="UTF-8" standalone="no"?>
<svg
   xmlns:dc="http://purl.org/dc/elements/1.1/"
   xmlns:cc="http://creativecommons.org/ns#"
   xmlns:rdf="http://www.w3.org/1999/02/22-rdf-syntax-ns#"
   xmlns:svg="http://www.w3.org/2000/svg"
   xmlns="http://www.w3.org/2000/svg"
   xmlns:sodipodi="http://sodipodi.sourceforge.net/DTD/sodipodi-0.dtd"
   xmlns:inkscape="http://www.inkscape.org/namespaces/inkscape"
   version="1.1"
   id="Capa_1"
   x="0px"
   y="0px"
   width="16.200314"
   height="16.200314"
   viewBox="0 0 16.200314 16.200314"
   xml:space="preserve"
   sodipodi:docname="linked_in_logo_black.svg"
   inkscape:version="1.0.1 (3bc2e813f5, 2020-09-07)"><metadata
   id="metadata42"><rdf:RDF><cc:Work
       rdf:about=""><dc:format>image/svg+xml</dc:format><dc:type
         rdf:resource="http://purl.org/dc/dcmitype/StillImage" /><dc:title></dc:title></cc:Work></rdf:RDF></metadata><defs
   id="defs40" /><sodipodi:namedview
   pagecolor="#ffffff"
   bordercolor="#666666"
   borderopacity="1"
   objecttolerance="10"
   gridtolerance="10"
   guidetolerance="10"
   inkscape:pageopacity="0"
   inkscape:pageshadow="2"
   inkscape:window-width="1600"
   inkscape:window-height="836"
   id="namedview38"
   showgrid="false"
   fit-margin-top="0"
   fit-margin-left="0"
   fit-margin-right="0"
   fit-margin-bottom="0"
   inkscape:zoom="1.2039216"
   inkscape:cx="-238.79969"
   inkscape:cy="-236.52948"
   inkscape:window-x="0"
   inkscape:window-y="0"
   inkscape:window-maximized="1"
   inkscape:current-layer="Capa_1" />
<g
   id="g5"
   transform="scale(0.03176532)">
	<g
   id="post-linkedin">
		<path
   d="M 459,0 H 51 C 22.95,0 0,22.95 0,51 v 408 c 0,28.05 22.95,51 51,51 h 408 c 28.05,0 51,-22.95 51,-51 V 51 C 510,22.95 487.05,0 459,0 Z M 153,433.5 H 76.5 V 204 H 153 Z M 114.75,160.65 c -25.5,0 -45.9,-20.4 -45.9,-45.9 0,-25.5 20.4,-45.9 45.9,-45.9 25.5,0 45.9,20.4 45.9,45.9 0,25.5 -20.4,45.9 -45.9,45.9 z M 433.5,433.5 H 357 V 298.35 c 0,-20.399 -17.85,-38.25 -38.25,-38.25 -20.4,0 -38.25,17.851 -38.25,38.25 V 433.5 H 204 V 204 h 76.5 v 30.6 c 12.75,-20.4 40.8,-35.7 63.75,-35.7 48.45,0 89.25,40.8 89.25,89.25 z"
   id="path2" />
	</g>
</g>
<g
   id="g7"
   transform="translate(-493.79969,-493.79969)">
</g>
<g
   id="g9"
   transform="translate(-493.79969,-493.79969)">
</g>
<g
   id="g11"
   transform="translate(-493.79969,-493.79969)">
</g>
<g
   id="g13"
   transform="translate(-493.79969,-493.79969)">
</g>
<g
   id="g15"
   transform="translate(-493.79969,-493.79969)">
</g>
<g
   id="g17"
   transform="translate(-493.79969,-493.79969)">
</g>
<g
   id="g19"
   transform="translate(-493.79969,-493.79969)">
</g>
<g
   id="g21"
   transform="translate(-493.79969,-493.79969)">
</g>
<g
   id="g23"
   transform="translate(-493.79969,-493.79969)">
</g>
<g
   id="g25"
   transform="translate(-493.79969,-493.79969)">
</g>
<g
   id="g27"
   transform="translate(-493.79969,-493.79969)">
</g>
<g
   id="g29"
   transform="translate(-493.79969,-493.79969)">
</g>
<g
   id="g31"
   transform="translate(-493.79969,-493.79969)">
</g>
<g
   id="g33"
   transform="translate(-493.79969,-493.79969)">
</g>
<g
   id="g35"
   transform="translate(-493.79969,-493.79969)">
</g>
</svg>
